<?xml version="1.0" encoding="utf-8"?>
<!-- Generator: Adobe Illustrator 19.0.1, SVG Export Plug-In . SVG Version: 6.00 Build 0)  -->
<svg version="1.1" id="Слой_1" xmlns="http://www.w3.org/2000/svg" xmlns:xlink="http://www.w3.org/1999/xlink" x="0px" y="0px"
	 viewBox="-255 334 100 125" style="enable-background:new -255 334 100 125;" xml:space="preserve">
<g>
	<g>
		<g>
			<path d="M-198.6,410.1c-1.2,0-2.3-0.3-3.4-0.7c-1-0.3-2-0.6-2.9-0.6s-1.9,0.3-2.9,0.6c-1.1,0.3-2.3,0.7-3.4,0.7
				c-0.4,0-0.8,0-1.1-0.1c-1.6-0.4-2.8-1.5-4-2.5c-0.8-0.7-1.5-1.4-2.3-1.8c-0.8-0.4-1.8-0.5-2.9-0.7c-1.5-0.2-3.1-0.5-4.4-1.5
				c-1.3-1-1.9-2.5-2.4-4c-0.4-1-0.8-1.9-1.3-2.6c-0.5-0.7-1.4-1.3-2.3-1.9c-1.3-0.9-2.6-1.8-3.3-3.3c-0.7-1.4-0.6-3-0.5-4.6
				c0.1-1.1,0.1-2.1-0.1-3c-0.2-0.8-0.7-1.7-1.2-2.6c-0.8-1.4-1.6-2.8-1.6-4.5c0-1.7,0.8-3.1,1.6-4.5c0.5-0.9,1-1.8,1.2-2.6
				c0.2-0.9,0.1-1.9,0.1-3c-0.1-1.6-0.2-3.2,0.5-4.6c0.7-1.5,2-2.4,3.3-3.3c0.9-0.6,1.7-1.2,2.3-1.9c0.5-0.7,0.9-1.6,1.3-2.6
				c0.6-1.5,1.2-3,2.4-4c1.2-1,2.8-1.3,4.4-1.5c1.1-0.2,2.1-0.3,2.9-0.7c0.8-0.4,1.5-1.1,2.3-1.8c1.2-1.1,2.4-2.2,4-2.5
				c0.4-0.1,0.7-0.1,1.1-0.1c1.2,0,2.3,0.3,3.4,0.7c1,0.3,2,0.6,2.9,0.6s1.9-0.3,2.9-0.6c1.1-0.3,2.3-0.7,3.4-0.7
				c0.4,0,0.8,0,1.1,0.1c1.6,0.4,2.8,1.5,4,2.5c0.8,0.7,1.5,1.4,2.3,1.8c0.8,0.4,1.8,0.5,2.9,0.7c1.5,0.2,3.1,0.5,4.4,1.5
				c1.3,1,1.9,2.5,2.4,4c0.4,1,0.8,1.9,1.3,2.6c0.5,0.7,1.4,1.3,2.3,1.9c1.3,0.9,2.6,1.8,3.3,3.3c0.7,1.4,0.6,3,0.5,4.6
				c-0.1,1.1-0.1,2.1,0.1,3c0.2,0.8,0.7,1.7,1.2,2.6c0.8,1.4,1.6,2.8,1.6,4.5c0,1.7-0.8,3.1-1.6,4.5c-0.5,0.9-1,1.8-1.2,2.6
				c-0.2,0.9-0.1,1.9-0.1,3c0.1,1.6,0.2,3.2-0.5,4.6c-0.7,1.5-2,2.4-3.3,3.3c-0.9,0.6-1.7,1.2-2.3,1.9c-0.5,0.7-0.9,1.6-1.3,2.6
				c-0.6,1.5-1.2,3-2.4,4c-1.2,1-2.8,1.3-4.4,1.5c-1.1,0.2-2.1,0.3-2.9,0.7c-0.8,0.4-1.5,1.1-2.3,1.8c-1.2,1.1-2.4,2.2-4,2.5
				C-197.9,410.1-198.2,410.1-198.6,410.1z M-205,406.8c1.2,0,2.4,0.4,3.5,0.7c1.3,0.4,2.6,0.7,3.5,0.5c1.1-0.2,2-1.1,3-2.1
				c0.9-0.8,1.7-1.6,2.8-2.1c1.1-0.5,2.3-0.7,3.4-0.9c1.3-0.2,2.6-0.4,3.5-1.1c0.8-0.7,1.3-1.9,1.8-3.1c0.4-1.1,0.9-2.2,1.6-3.1
				c0.7-0.9,1.7-1.6,2.7-2.3c1.1-0.8,2.2-1.5,2.7-2.5c0.5-1,0.4-2.2,0.3-3.6c-0.1-1.2-0.2-2.4,0.1-3.6c0.3-1.1,0.8-2.2,1.4-3.2
				c0.7-1.2,1.3-2.3,1.3-3.5s-0.6-2.3-1.3-3.5c-0.6-1-1.2-2-1.4-3.2c-0.3-1.2-0.2-2.4-0.1-3.6c0.1-1.4,0.2-2.6-0.3-3.6
				c-0.5-1-1.5-1.7-2.7-2.5c-1-0.7-2-1.3-2.7-2.3c-0.7-0.9-1.2-2-1.6-3.1c-0.5-1.3-1-2.5-1.8-3.1c-0.8-0.7-2.1-0.9-3.4-1.1
				c-1.2-0.2-2.4-0.4-3.4-0.9c-1-0.5-1.9-1.3-2.8-2.1c-1-0.9-2-1.8-3-2.1c-1-0.2-2.2,0.1-3.5,0.5c-1.1,0.3-2.3,0.7-3.5,0.7
				s-2.4-0.4-3.5-0.7c-1.3-0.4-2.6-0.7-3.5-0.5c-1.1,0.2-2,1.1-3,2.1c-0.9,0.8-1.7,1.6-2.8,2.1c-1.1,0.5-2.3,0.7-3.4,0.9
				c-1.3,0.2-2.6,0.4-3.4,1.1c-0.8,0.7-1.3,1.9-1.8,3.1c-0.4,1.1-0.9,2.2-1.6,3.1c-0.7,0.9-1.7,1.6-2.7,2.3
				c-1.1,0.8-2.2,1.5-2.7,2.5c-0.5,1-0.4,2.2-0.3,3.6c0.1,1.2,0.2,2.4-0.1,3.6c-0.3,1.1-0.8,2.2-1.4,3.2c-0.7,1.2-1.3,2.3-1.3,3.5
				s0.6,2.3,1.3,3.5c0.6,1,1.2,2,1.4,3.2c0.3,1.2,0.2,2.4,0.1,3.6c-0.1,1.4-0.2,2.6,0.3,3.6c0.5,1,1.5,1.7,2.7,2.5
				c1,0.7,2,1.3,2.7,2.3c0.7,0.9,1.2,2,1.6,3.1c0.5,1.3,1,2.5,1.8,3.1c0.8,0.7,2.1,0.9,3.4,1.1c1.2,0.2,2.4,0.4,3.4,0.9
				c1,0.5,1.9,1.3,2.8,2.1c1,0.9,2,1.8,3,2.1c1,0.2,2.2-0.1,3.5-0.5C-207.4,407.2-206.2,406.8-205,406.8z"/>
		</g>
		<g>
			<path d="M-205,403.8c-14.7,0-26.7-12-26.7-26.7c0-14.8,12-26.8,26.7-26.8s26.7,12,26.7,26.8C-178.3,391.8-190.3,403.8-205,403.8z
				 M-205,352.3c-13.6,0-24.7,11.1-24.7,24.8s11.1,24.7,24.7,24.7s24.7-11.1,24.7-24.7S-191.4,352.3-205,352.3z"/>
		</g>
	</g>
	<g>
		<path d="M-206.7,388.4l-9.6-10.6c-0.4-0.4-0.3-1,0.1-1.4c0.4-0.4,1-0.3,1.4,0.1l7.8,8.7l11.6-17.9c0.3-0.5,0.9-0.6,1.4-0.3
			c0.5,0.3,0.6,0.9,0.3,1.4L-206.7,388.4z"/>
	</g>
	<g>
		<path d="M-212.5,421l-4.6-3.8l-5.8,0.1l3.4-12.3c0.1-0.5,0.7-0.8,1.2-0.7c0.5,0.1,0.8,0.7,0.7,1.2l-2.6,9.7l3.9-0.1l3.1,2.5l3.6-9
			c0.2-0.5,0.8-0.8,1.3-0.6c0.5,0.2,0.8,0.8,0.6,1.3L-212.5,421z"/>
	</g>
	<g>
		<path d="M-192.5,424l-7.9-13.7c-0.3-0.5-0.1-1.1,0.4-1.4c0.5-0.3,1.1-0.1,1.4,0.4l6.5,11.4l2.6-2.8l3.9-0.4l-5.7-12.2
			c-0.2-0.5,0-1.1,0.5-1.3c0.5-0.2,1.1,0,1.3,0.5l6.9,14.7l-6,0.7L-192.5,424z"/>
	</g>
</g>
</svg>
