<?xml version="1.0" encoding="utf-8"?>
<!-- Generator: Adobe Illustrator 19.0.1, SVG Export Plug-In . SVG Version: 6.00 Build 0)  -->
<svg version="1.1" id="Слой_1" xmlns="http://www.w3.org/2000/svg" xmlns:xlink="http://www.w3.org/1999/xlink" x="0px" y="0px"
	 viewBox="-255 334 100 125" style="enable-background:new -255 334 100 125;" xml:space="preserve">
<g>
	<path d="M-175,339h-6v-1.5c0-0.8-0.7-1.5-1.5-1.5s-1.5,0.7-1.5,1.5l0,0v1.5h-6v-1.5c0-0.8-0.7-1.5-1.5-1.5s-1.5,0.7-1.5,1.5l0,0
		v1.5h-6v-1.5c0-0.8-0.7-1.5-1.5-1.5s-1.5,0.7-1.5,1.5l0,0v1.5h-6v-1.5c0-0.8-0.7-1.5-1.5-1.5s-1.5,0.7-1.5,1.5l0,0v1.5h-6v-1.5
		c0-0.8-0.7-1.5-1.5-1.5s-1.5,0.7-1.5,1.5l0,0v1.5h-6v-1.5c0-0.8-0.7-1.5-1.5-1.5s-1.5,0.7-1.5,1.5l0,0v1.5h-6c-1.7,0-3,1.3-3,3v87
		c0,1.7,1.3,3,3,3h60c1.7,0,3-1.3,3-3v-87C-172,340.3-173.3,339-175,339z M-175,429h-60v-87h6v4.5l0,0c0,0.8,0.7,1.5,1.5,1.5
		s1.5-0.7,1.5-1.5V342h6v4.5l0,0c0,0.8,0.7,1.5,1.5,1.5s1.5-0.7,1.5-1.5V342h6v4.5l0,0c0,0.8,0.7,1.5,1.5,1.5s1.5-0.7,1.5-1.5V342h6
		v4.5l0,0c0,0.8,0.7,1.5,1.5,1.5s1.5-0.7,1.5-1.5V342h6v4.5l0,0c0,0.8,0.7,1.5,1.5,1.5s1.5-0.7,1.5-1.5V342h6v4.5l0,0
		c0,0.8,0.7,1.5,1.5,1.5s1.5-0.7,1.5-1.5V342h6V429z"/>
	<path d="M-185.5,360h-39l0,0c-0.8,0-1.5,0.7-1.5,1.5s0.7,1.5,1.5,1.5l0,0h39c0.8,0,1.5-0.7,1.5-1.5S-184.7,360-185.5,360z"/>
	<path d="M-185.5,372h-39l0,0c-0.8,0-1.5,0.7-1.5,1.5s0.7,1.5,1.5,1.5l0,0h39c0.8,0,1.5-0.7,1.5-1.5S-184.7,372-185.5,372z"/>
	<path d="M-185.5,384h-39l0,0c-0.8,0-1.5,0.7-1.5,1.5s0.7,1.5,1.5,1.5l0,0h39c0.8,0,1.5-0.7,1.5-1.5C-184,384.7-184.7,384-185.5,384
		z"/>
	<path d="M-185.5,396h-39l0,0c-0.8,0-1.5,0.7-1.5,1.5s0.7,1.5,1.5,1.5l0,0h39c0.8,0,1.5-0.7,1.5-1.5S-184.7,396-185.5,396z"/>
	<path d="M-194.5,408h-30l0,0c-0.8,0-1.5,0.7-1.5,1.5s0.7,1.5,1.5,1.5l0,0h30c0.8,0,1.5-0.7,1.5-1.5S-193.7,408-194.5,408z"/>
</g>
</svg>
