<?xml version="1.0" encoding="utf-8"?>
<!-- Generator: Adobe Illustrator 19.0.1, SVG Export Plug-In . SVG Version: 6.00 Build 0)  -->
<svg version="1.1" id="Слой_1" xmlns="http://www.w3.org/2000/svg" xmlns:xlink="http://www.w3.org/1999/xlink" x="0px" y="0px"
	 viewBox="-260 340.5 90 112.5" style="enable-background:new -260 340.5 90 112.5;" xml:space="preserve">
<g>
	<path d="M-196.5,386.8l-13.7-21.8h0v-16.7h-2v16.8l0,0l-11.9,14.3l-8.5,1.9v15.9v1v15.5l12.7,1l34.9-1.7v-22.1L-196.5,386.8z
		 M-228.5,398.2h-2.6v-1h2.6V398.2z M-221.7,378.9l10.5-12.6l12.4,19.7l-21.1-7.5L-221.7,378.9z M-214.1,412.5l-3.8,0.2v-31.3
		l3.8,1.3V412.5z M-209.2,412.2l-3.4,0.2v-29.1l3.4,1.2V412.2z M-205,412l-2.7,0.1V385l2.7,1V412z M-201.2,411.8l-2.3,0.1v-25.4
		l2.3,0.8V411.8z M-197.7,411.6l-2,0.1v-23.9l2,0.7V411.6z M-194.5,411.5l-1.7,0.1v-22.5l1.7,0.6V411.5z M-191.7,411.3l-1.3,0.1
		v-21.2l1.3,0.5V411.3z M-189,411.2l-1.2,0.1v-20.1l1.2,0.4V411.2z M-187,411.1l-0.5,0v-19l0.5,0.2V411.1z"/>
	<path d="M-244.1,412.9l10.6,0.8v-15.5v-1v-15.6l-10.6,2.4V412.9z M-236.6,397.3h2v1h-2V397.3z"/>
</g>
</svg>
