<?xml version="1.0" encoding="utf-8"?>
<!-- Generator: Adobe Illustrator 19.0.1, SVG Export Plug-In . SVG Version: 6.00 Build 0)  -->
<svg version="1.1"
	 id="Слой_1" xmlns:cc="http://creativecommons.org/ns#" xmlns:svg="http://www.w3.org/2000/svg" xmlns:rdf="http://www.w3.org/1999/02/22-rdf-syntax-ns#" xmlns:dc="http://purl.org/dc/elements/1.1/"
	 xmlns="http://www.w3.org/2000/svg" xmlns:xlink="http://www.w3.org/1999/xlink" x="0px" y="0px" viewBox="-255 334 100 125"
	 style="enable-background:new -255 334 100 125;" xml:space="preserve">
<path d="M-205,339c-18.3,0-18.1,16-18.1,16l-0.1,8.5c-1.5,0-1.9,1.5-1.9,4.4c0,3.4,1.6,6.9,3.4,9.4c3.2,3.2,7.7,5,12.3,4.8
	c0.1-0.5,0.4-1,0.8-1.4c1.4-1.6,3.8-1.8,5.4-0.4c1.6,1.4,1.8,3.8,0.4,5.4c-1.4,1.6-3.8,1.8-5.4,0.4c-0.4-0.3-0.7-0.8-0.9-1.2
	c-3.3,0.2-6.6-0.6-9.6-2c0.9,2,2,3.8,3.4,5.3c-7.3,4.5-16.2,7.6-21.9,10.6c-5.8,3.1-10.7,14.7-10.7,24c11.4,5.4,33.5,6.2,42.9,6.2
	c9.5,0,31.5-0.8,42.9-6.2c0-9.3-4.9-20.9-10.7-24c-5.7-3-14.5-6.1-21.9-10.6c2.1-2.3,3.7-5.4,4.6-8.9c2.5-2.4,5.2-7,5.2-11.5
	c0-3-0.4-4.5-1.9-4.4l-0.1-8.5C-186.9,355-186.7,339-205,339z"/>
</svg>
