<?xml version="1.0" encoding="utf-8"?>
<!-- Generator: Adobe Illustrator 19.0.1, SVG Export Plug-In . SVG Version: 6.00 Build 0)  -->
<svg version="1.1" id="Слой_1" xmlns="http://www.w3.org/2000/svg" xmlns:xlink="http://www.w3.org/1999/xlink" x="0px" y="0px"
	 viewBox="-257 337 96 120" style="enable-background:new -257 337 96 120;" xml:space="preserve">
<path d="M-190,429h-11v-4h11c1.7,0,5-3.6,5-5.5V393h4v26.5C-181,423.3-185.8,429-190,429z"/>
<path d="M-183,383.9c-0.8,0-1.5-0.4-1.8-1.2c-1.1-2.5-1.8-4.4-2.1-5.7c-1.6-7.2-6.9-24-22-24c-15.1,0-20.4,16.8-22,24
	c-0.3,1.1-0.8,2.6-1.6,4.6c-0.4,1-1.6,1.5-2.6,1c-1-0.4-1.5-1.6-1-2.6c0.9-2.1,1.3-3.3,1.4-3.9c3.8-17.3,13.3-27.2,26-27.2
	c12.7,0,22.1,9.9,26,27.2c0.2,0.7,0.6,2.2,1.9,4.9c0.5,1,0,2.2-1,2.6C-182.5,383.9-182.7,383.9-183,383.9z"/>
<path d="M-183,371c-1.1,0-2-0.9-2-2v-4.4c0-12.8-11-23.6-24-23.6s-24,10.8-24,23.6v4.4c0,1.1-0.9,2-2,2s-2-0.9-2-2v-4.4
	c0-14.9,12.8-27.6,28-27.6s28,12.6,28,27.6v4.4C-181,370.1-181.9,371-183,371z"/>
<path d="M-209,416.9c-11,0-20-9.8-20-21.8V381c0-1.1,0.9-2,2-2s2,0.9,2,2v14.2c0,9.8,7.2,17.8,16,17.8s16-8,16-17.8V381
	c0-1.1,0.9-2,2-2s2,0.9,2,2v14.2C-189,407.1-198,416.9-209,416.9z"/>
<path d="M-235,397h-6c-4.4,0-8-3.6-8-8v-12c0-4.4,3.6-8,8-8h6c1.1,0,2,0.9,2,2v24C-233,396.1-233.9,397-235,397z M-241,373
	c-2.2,0-4,1.8-4,4v12c0,2.2,1.8,4,4,4h4v-20H-241z"/>
<path d="M-177,397h-6c-1.1,0-2-0.9-2-2v-24c0-1.1,0.9-2,2-2h6c4.4,0,8,3.6,8,8v12C-169,393.4-172.6,397-177,397z M-181,393h4
	c2.2,0,4-1.8,4-4v-12c0-2.2-1.8-4-4-4h-4V393z"/>
<path d="M-203,433h-12c-3.3,0-6-2.7-6-6c0-3.3,2.7-6,6-6h12c3.3,0,6,2.7,6,6C-197,430.3-199.7,433-203,433z M-215,425
	c-1.1,0-2,0.9-2,2s0.9,2,2,2h12c1.1,0,2-0.9,2-2s-0.9-2-2-2H-215z"/>
<path d="M-185.5,383c-5.3,0-14.4-6-18.8-12c-6,11.6-28.5,12-28.7,12c-1.1,0-2-0.9-2-2s0.9-2,2-2c5.5,0,26.2-2.4,26.2-14.2
	c0-1.1,0.9-2,2-2s2,0.9,2,2c0,4.4,12,14.2,17.3,14.2c1.1,0,2,0.9,2,2S-184.4,383-185.5,383z"/>
</svg>
