<?xml version="1.0" encoding="utf-8"?>
<!-- Generator: Adobe Illustrator 19.0.1, SVG Export Plug-In . SVG Version: 6.00 Build 0)  -->
<svg version="1.1" id="Слой_1" xmlns="http://www.w3.org/2000/svg" xmlns:xlink="http://www.w3.org/1999/xlink" x="0px" y="0px"
	 viewBox="-265 347 80 100" style="enable-background:new -265 347 80 100;" xml:space="preserve">
<g>
	<g>
		<path d="M-223.5,415.2l-0.6-0.4c-0.3-0.2-25.8-19.1-25.8-45.5v-0.8l2.1-0.6c8.7-2.3,16.6-6.2,23.7-11.8l0.6-0.5l0.6,0.5
			c7,5.5,15,9.5,23.7,11.8l2.1,0.6v0.8c0,26.3-25.6,45.3-25.8,45.5L-223.5,415.2z M-247.9,370.1c0.4,22.8,20.7,39.7,24.4,42.6
			c3.7-2.9,24-19.9,24.4-42.6l-0.6-0.2c-8.7-2.3-16.7-6.2-23.8-11.7c-7.1,5.5-15.1,9.4-23.8,11.7L-247.9,370.1z"/>
	</g>
	<g>
		<polygon points="-224.7,389.5 -230.4,383.3 -228.9,381.9 -224.6,386.5 -215.8,377.1 -214.3,378.5 		"/>
	</g>
</g>
</svg>
