<?xml version="1.0" encoding="utf-8"?>
<!-- Generator: Adobe Illustrator 19.0.1, SVG Export Plug-In . SVG Version: 6.00 Build 0)  -->
<svg version="1.1" id="Слой_1" xmlns="http://www.w3.org/2000/svg" xmlns:xlink="http://www.w3.org/1999/xlink" x="0px" y="0px"
	 viewBox="-260 340.5 90 112.5" style="enable-background:new -260 340.5 90 112.5;" xml:space="preserve">
<g>
	<path d="M-216.2,355.3c-1.2,0-2.2,1-2.2,2.2V387c0,1.3,1.6,2.2,2.7,2.2h15c1.2,0,2.2-1,2.2-2.2s-1-2.2-2.2-2.2H-214v-27.3
		C-214,356.3-215,355.3-216.2,355.3z"/>
	<path d="M-195.6,360.3l4.2,4.2l0.1,0.1c0.5,0.3,1,0.5,1.5,0.5c0.6,0,1.1-0.2,1.3-0.4l10.9-10.9c0.4-0.4,0.7-1,0.7-1.5
		s-0.2-1.1-0.7-1.5c-0.8-0.8-2.2-0.8-3.1,0l-9.1,9.1l-2.8-2.8c-0.8-0.8-2.2-0.8-3.1,0C-196.5,358.1-196.5,359.5-195.6,360.3z"/>
	<path d="M-174.9,369.4L-174.9,369.4c-0.6-1.1-1.8-1.6-2.9-1.2l-0.1,0.1c-1.1,0.6-1.5,1.8-1.1,2.9c1.9,4.6,2.8,9.5,2.8,14.6
		c0.1,21.3-17.4,38.7-38.8,38.7s-38.9-17.4-38.9-38.8c0-21.4,17.5-38.9,38.9-38.9c6.1,0,11.9,1.3,17.3,4c1,0.4,2.3,0,2.9-1.1
		c0.4-1,0-2.3-1-2.9c-5.9-3-12.4-4.5-19.2-4.5c-23.8,0.1-43.2,19.5-43.2,43.3c0,23.8,19.4,43.2,43.2,43.2s43.2-19.4,43.2-43.2
		C-171.8,380.1-172.8,374.7-174.9,369.4z"/>
</g>
</svg>
